<?xml version="1.0" encoding="UTF-8" standalone="no"?>
<svg
   xmlns:dc="http://purl.org/dc/elements/1.1/"
   xmlns:cc="http://creativecommons.org/ns#"
   xmlns:rdf="http://www.w3.org/1999/02/22-rdf-syntax-ns#"
   xmlns:svg="http://www.w3.org/2000/svg"
   xmlns="http://www.w3.org/2000/svg"
   xmlns:sodipodi="http://sodipodi.sourceforge.net/DTD/sodipodi-0.dtd"
   xmlns:inkscape="http://www.inkscape.org/namespaces/inkscape"
   width="400"
   height="400"
   id="svg3030"
   version="1.1"
   inkscape:version="0.48.5 r10040"
   sodipodi:docname="call_me.svg">
  <metadata
     id="metadata3038">
    <rdf:RDF>
      <cc:Work
         rdf:about="">
        <dc:format>image/svg+xml</dc:format>
        <dc:type
           rdf:resource="http://purl.org/dc/dcmitype/StillImage" />
      </cc:Work>
    </rdf:RDF>
  </metadata>
  <defs
     id="defs3036" />
  <sodipodi:namedview
     pagecolor="#ffffff"
     bordercolor="#666666"
     borderopacity="1"
     objecttolerance="10"
     gridtolerance="10"
     guidetolerance="10"
     inkscape:pageopacity="0"
     inkscape:pageshadow="2"
     inkscape:window-width="1600"
     inkscape:window-height="837"
     id="namedview3034"
     showgrid="false"
     inkscape:zoom="1.625"
     inkscape:cx="200"
     inkscape:cy="200"
     inkscape:window-x="-8"
     inkscape:window-y="-8"
     inkscape:window-maximized="1"
     inkscape:current-layer="svg3030" />
  <path
     style="fill:#000000;stroke:none"
     d="m 92.669833,265.12673 c 1.877039,0.864 3.486467,3.25607 4.934082,4.70398 3.259435,3.25904 6.485815,6.58636 9.835905,9.75534 2.26044,2.13772 4.04188,4.20715 7.37811,4.37639 6.09944,0.30977 9.58709,-6.98818 6.18059,-11.68919 -2.0536,-2.83446 -5.09194,-5.277 -7.56714,-7.75914 -4.94051,-4.95239 -9.85035,-9.90973 -14.826497,-14.82352 -2.366043,-2.33566 -4.723179,-4.67726 -7.080315,-7.01588 -1.453057,-1.44099 -2.803286,-3.04725 -4.644993,-4.03595 -4.225961,-2.26836 -9.65449,0.19794 -14.186164,-0.10886 -4.132436,-0.27909 -8.107511,-1.12329 -12.159584,-1.92395 -2.834857,-0.55917 -5.991957,-1.08272 -8.685388,-2.1308 -1.520257,-0.59282 -2.875039,-1.54094 -4.342744,-2.23669 -1.861797,-0.88379 -3.703307,-1.83685 -5.500676,-2.84238 -0.570554,-0.31966 -1.368242,-0.51562 -1.852495,-0.95009 -0.630628,-0.5671 0.196651,-1.3153 0.591436,-1.76561 1.285999,-1.46869 2.538645,-2.96213 3.825732,-4.43082 2.43354,-2.77706 4.797109,-5.61944 7.180966,-8.43213 1.570731,-1.85368 3.253891,-3.43124 3.842556,-5.85993 1.141702,-4.71091 -3.622648,-9.7593 -8.49715,-8.82404 -3.514376,0.67496 -5.422986,3.84988 -7.472329,6.39436 -4.535436,5.63131 -8.951318,11.35566 -13.536732,16.94739 -2.075274,2.52964 -4.866585,5.26513 -4.695666,8.77852 0.202292,4.15767 3.379185,5.92228 6.717001,7.62652 4.447749,2.27034 8.94815,4.53672 13.317615,6.95156 1.412877,0.78086 2.879988,1.54589 4.342744,2.2357 0.692286,0.3256 1.594088,0.6809 1.819043,1.48156 0.779972,2.7731 0.499594,6.13605 0.810554,9.00317 0.815402,7.52063 1.443259,15.05313 2.171866,22.58168 0.930998,9.61975 1.704141,19.26226 2.749844,28.87113 1.15823,10.64209 2.926205,21.22283 4.004666,31.87186 0.783337,7.73439 1.960965,15.43316 2.897208,23.15371 0.475841,3.9241 0.302448,8.10553 3.496562,10.99145 5.697822,5.14835 15.052436,0.25534 14.951983,-6.98916 -0.06275,-4.51891 -1.12171,-9.08829 -1.610318,-13.5785 -1.32331,-12.15928 -3.109199,-24.277 -4.342249,-36.4452 -0.280081,-2.76419 -0.636368,-5.52443 -0.917439,-8.28961 -0.130243,-1.28065 -0.606579,-2.71471 -0.431504,-4.00229 0.243166,-1.78738 1.999266,-3.12147 3.785353,-2.98786 2.292608,0.1722 2.822783,2.08823 3.015376,3.98843 0.463569,4.57532 1.303021,9.13283 1.620413,13.72101 0.234952,3.39661 0.931394,6.75956 1.274716,10.14726 0.986223,9.73257 2.280535,19.44733 3.457371,29.15715 0.635477,5.24434 0.115793,11.80794 4.673496,15.4104 4.780284,3.77862 12.769232,1.1896 14.445762,-4.5486 0.54928,-1.87941 0.2405,-3.81425 0.0544,-5.71643 -0.30383,-3.0987 -0.68585,-6.1984 -1.05995,-9.29018 -2.61079,-21.53953 -4.977929,-43.15329 -7.09556,-64.74528 -0.561054,-5.72039 -1.261158,-11.43583 -1.881196,-17.15028 -0.343223,-3.16402 -0.987212,-6.39238 -0.989291,-9.5762 M 68.929732,202.44396 c -2.857719,0.38399 -5.564016,1.07579 -7.96163,2.74539 -8.721017,6.07172 -8.864324,19.28898 -0.144791,25.44978 3.523283,2.48906 7.940649,3.23528 12.159583,2.58605 1.82221,-0.28008 3.649963,-1.12527 5.211292,-2.04964 11.339331,-6.71898 9.01723,-23.87123 -3.329404,-27.93489 -1.846754,-0.60766 -3.977054,-1.05995 -5.93505,-0.79669 m 135.213328,74.99942 c -1.0847,-1.43802 -2.58704,-3.91619 -4.21903,-4.7307 -1.12924,-0.56314 -2.82457,-0.16132 -4.04881,-0.24149 -3.28675,-0.21476 -6.62991,-0.35134 -9.92062,-0.35134 -1.07974,0 -3.38076,-0.64428 -4.29029,0.005 -0.63142,0.4513 -0.8056,1.69533 -1.0748,2.38119 -1.0837,2.75825 -1.00552,5.49276 0.29988,8.25992 0.57402,1.21929 2.31191,3.27091 3.59553,3.74299 0.99365,0.36619 2.44156,0.11085 3.49062,0.11085 l 7.53251,0 c 2.32279,0 5.4017,-0.52157 6.61407,2.01896 -10.86874,0.46614 -20.70622,7.30784 -23.42983,18.17163 -1.39249,5.5561 -0.82144,11.56943 -0.82144,17.25221 0,7.23857 -0.38598,14.16934 3.17986,20.74086 2.11001,3.88946 5.43338,7.17423 9.31295,9.30305 1.28164,0.70367 2.65335,1.31331 4.04188,1.76956 0.70861,0.23356 1.77153,0.33253 2.27726,0.93426 0.9026,1.07381 0.29493,4.43578 0.29493,5.7966 0,5.8243 0.19398,12.7046 7.34842,14.16834 2.52964,0.51761 5.14736,0.33155 7.71659,0.33155 5.53729,0 11.77133,0.58886 14.82253,-5.13845 1.75867,-3.30259 1.1609,-7.58991 1.1609,-11.19632 0,-1.13913 -0.63934,-3.39661 0.92041,-3.64403 3.37384,-0.53443 7.23461,-0.0267 10.65496,-0.0267 l 21.67908,0 67.42535,0 5.51156,0 c 0.65419,0 1.60528,-0.16132 2.14663,0.29394 0.90458,0.76107 0.42557,3.39957 0.42557,4.47734 0,3.49359 -0.63142,7.54042 1.29847,10.64605 3.42134,5.50662 10.01958,4.58819 15.60438,4.58819 2.48214,0 5.14241,0.25039 7.53251,-0.56907 7.61365,-2.60782 6.42999,-10.84003 6.42999,-17.2344 0,-1.44296 -0.49584,-4.02307 0.18903,-5.31461 0.76107,-1.43703 3.20955,-2.53954 4.4041,-3.68659 2.43364,-2.33565 4.36947,-5.3057 5.61251,-8.43509 2.05558,-5.17705 1.7369,-10.69356 1.7369,-16.15168 0,-10.63319 1.13121,-21.57418 -6.98223,-29.83311 -2.84337,-2.89483 -6.4013,-5.03651 -10.28779,-6.19345 -1.7468,-0.51959 -3.90036,-0.45823 -5.51157,-1.23315 3.4164,-1.73987 7.55428,-1.10152 11.3903,-1.10152 1.39447,0 3.8004,0.46317 4.95833,-0.42557 3.31941,-2.54745 4.49912,-7.35436 3.18877,-11.13793 -0.26623,-0.76899 -0.48396,-2.45244 -1.24206,-2.88691 -0.93723,-0.53641 -3.63313,-0.0841 -4.70002,0.0564 -2.58803,0.33946 -5.47296,0.26127 -8.08375,0.26127 -1.13221,0 -3.01063,-0.17517 -4.02506,0.37213 -1.77945,0.959 -3.05813,3.82909 -4.42687,5.31758 -2.32378,-12.32456 -5.50265,-25.04005 -12.55417,-35.60693 -3.12939,-4.69013 -7.17918,-9.39114 -12.43145,-11.77232 -4.54761,-2.06152 -9.08433,-1.81014 -13.96249,-1.81014 -1.82696,0 -4.72377,0.55126 -6.42307,-0.13658 -0.76106,-0.30779 -1.12824,-1.21137 -1.50333,-1.88238 -0.94911,-1.69929 -1.88238,-3.41145 -2.77706,-5.13944 -1.07975,-2.08428 -2.22283,-5.24732 -3.88254,-6.90306 -1.30935,-1.3054 -4.58621,-2.36139 -6.35873,-2.86317 -1.11043,-0.31472 -2.35051,-0.10193 -3.49063,-0.15241 -2.75726,-0.12074 -5.49968,-0.17616 -8.26784,-0.17616 -3.18976,0 -6.56261,0.0871 -9.73653,-0.21476 -2.20502,-0.20982 -5.38291,-0.67695 -7.53349,-0.0584 -1.9863,0.57104 -4.89202,2.79091 -6.41119,4.18736 -2.35447,2.16543 -3.76279,6.34884 -5.34629,9.11699 -0.57599,1.0075 -1.13913,2.73054 -2.21294,3.29862 -1.55578,0.82441 -4.85639,0.18903 -6.60615,0.18903 -5.17012,0 -10.42239,-0.51661 -15.24909,1.70919 -5.40863,2.49302 -9.42676,7.62554 -12.41957,12.60762 -4.10918,6.8417 -7.01292,14.40191 -9.31097,22.02448 -1.20544,4.00031 -1.96453,8.15006 -3.25508,12.11475 m 78.81664,-48.45604 c 0.72247,-1.17574 2.89186,-3.38373 2.86019,-4.77226 -0.0168,-0.75414 -0.86795,-1.60033 -1.26778,-2.20206 -1.02532,-1.54391 -2.23868,-3.1185 -3.06209,-4.77226 3.45103,-0.38499 4.89894,1.10251 6.24591,4.22101 l 0.36816,0 c 0.53542,-1.14606 1.52906,-3.36493 2.63257,-4.03297 1.24502,-0.75315 4.19231,-0.18804 5.63428,-0.18804 l 0,14.31581 c -1.38655,0 -4.23091,0.54631 -5.42546,-0.18804 -1.4489,-0.89072 -1.84775,-3.15215 -3.20955,-4.21705 -1.19456,2.52567 -2.26836,4.40608 -5.1434,4.40509 -0.53443,0 -1.29055,0.12371 -1.76066,-0.18804 -1.00552,-0.66804 -0.85607,-2.51281 -1.56271,-3.42432 -0.53938,-0.69476 -2.61079,-0.56412 -3.41244,-0.42358 -1.26581,0.22268 -1.11142,2.92155 -1.88535,3.742 -0.58886,0.62449 -2.34358,0.29394 -3.13731,0.29394 0.94416,-3.9825 2.92848,-7.90463 4.35066,-11.74659 0.47901,-1.29352 1.03522,-3.51635 2.94729,-2.64246 0.89864,0.41072 1.2183,2.34457 1.53006,3.19372 1.06193,2.88889 2.18324,5.757 3.29763,8.6261 m -9.55344,-11.74658 0,3.12048 -3.93104,0.29393 -0.29492,2.82556 0,8.07584 -2.75529,0 0,-8.07584 -0.29493,-2.82556 -3.93103,-0.29393 0,-3.12048 11.20721,0 m 19.84123,1.46869 c -0.77196,1.631 -3.19669,3.69846 -3.29368,5.50563 -0.0831,1.54391 2.44156,4.24476 3.29368,5.50661 l 0.18408,0 0.18408,-8.07584 -0.36816,-2.9364 m -16.16752,3.67075 c -0.23554,1.03422 -0.48098,1.94275 0.91942,1.65178 l -0.55125,-1.65178 -0.36817,0 m -61.91378,62.95494 c 0.9402,-3.93401 1.12032,-8.12731 1.91999,-12.11377 2.21195,-11.03104 6.74273,-22.62324 15.53312,-30.04687 3.10366,-2.6197 7.12674,-4.82373 11.20721,-5.32452 4.02902,-0.49385 8.26289,0.13064 12.30972,0.13064 14.14361,0 28.29612,0.55126 42.43973,0.55126 7.30092,0 15.74888,-1.19257 22.59751,1.81013 12.92827,5.66794 18.69814,20.67158 21.93145,33.42963 0.75216,2.96609 1.38655,5.97177 1.87248,8.99427 0.11283,0.70268 0.68487,2.59298 0.25138,3.19273 -0.57302,0.79274 -3.84592,0.29393 -4.76435,0.29393 l -14.69783,0 c -20.0164,0 -40.04073,-0.36618 -60.07693,-0.36618 -11.25372,0 -22.55297,-0.36717 -33.80471,-0.36717 l -11.20721,0 c -1.74284,0 -3.83602,0.31076 -5.51156,-0.18408 m 133.19792,14.55234 c 9.97505,-1.19158 18.91687,9.88994 12.21768,18.66945 -0.94119,1.23315 -2.07834,2.28815 -3.39858,3.10761 -1.70721,1.06094 -3.70638,1.72008 -5.69565,1.97838 -10.02057,1.30045 -19.26424,-9.7583 -12.51161,-18.66845 0.95603,-1.26086 2.16147,-2.33863 3.50942,-3.16601 1.78639,-1.09657 3.81327,-1.67356 5.87874,-1.92098 m -142.38419,2.38713 c 5.42447,-0.70367 11.37743,2.07636 13.75664,7.10495 3.32534,7.0248 -1.7755,15.39458 -9.34759,16.48818 -4.57631,0.66012 -9.32186,-0.4028 -12.59772,-3.85483 -7.1099,-7.49094 -1.2668,-18.51109 8.18867,-19.7383 m 23.94249,3.17788 c 1.45682,-0.71653 4.56542,-0.11085 6.18752,-0.11085 l 15.61725,0 55.29971,0 17.82128,0 c 1.92989,0 3.84395,-0.66605 3.88056,1.65179 0.007,0.43942 0.16627,0.99266 -0.16626,1.35785 -0.83728,0.91942 -4.71487,0.29394 -5.91932,0.29394 l -17.6372,0 -57.68881,0 -11.3903,0 c -1.82004,0 -3.89145,0.2781 -5.68476,-0.0267 -0.9887,-0.16825 -1.15991,-2.75331 -0.31967,-3.16601 m 98.04921,9.43369 -75.51009,0 -18.55563,0 c -1.81509,0 -4.42093,0.74523 -4.40906,-1.65179 9.9e-4,-0.36618 -0.0554,-0.86696 0.18804,-1.17475 0.6334,-0.79868 3.80931,-0.29394 4.77227,-0.29394 l 14.32967,0 58.60725,0 14.88191,0 c 1.21237,0 4.43676,-0.57402 5.40072,0.18804 0.61162,0.48396 0.29492,2.22877 0.29492,2.93244 m -99.21011,3.30357 78.08229,0 15.2481,0 c 2.07141,0 4.97119,-0.52948 6.95452,0.0584 0.87192,0.25831 0.89864,3.77764 0.38994,4.41895 -0.68981,0.86994 -4.44072,0.29493 -5.50661,0.29493 l -16.71878,0 -60.07693,0 -13.22814,0 c -1.10845,0 -3.96271,0.51266 -4.84947,-0.18903 -0.78482,-0.62053 -0.29492,-3.63908 -0.29492,-4.58324 m 25.53687,16.76232 c 3.08585,-0.51365 6.60913,-0.0604 9.73753,-0.0604 l 19.84222,0 17.6372,0 c 2.8305,0 6.03214,-0.41567 8.81909,0.0861 7.64236,1.37369 8.70627,12.14444 1.65278,15.1709 -1.95265,0.83728 -4.16955,0.71159 -6.24591,0.71159 l -9.37035,0 -29.57876,0 c -4.27445,0 -9.92556,0.95505 -13.96348,-0.63538 -7.17127,-2.82654 -6.31519,-13.97635 1.46968,-15.27284 M 37.119927,24.241237 c -9.104916,3.290905 -8.298124,11.643264 -8.298124,19.510676 l 0,53.993823 0,55.845324 c 0,7.08022 -1.999958,17.52042 1.92494,23.75742 4.014267,6.37853 12.963406,4.62777 19.429324,4.62777 l 43.650611,0 12.875822,0 c 2.10111,0 4.59215,0.35728 6.59428,-0.36618 8.57069,-3.09871 7.53646,-11.77826 7.53646,-19.07126 l 0,-53.37675 0,-56.462591 c 0,-7.080315 2.00016,-17.520417 -1.92494,-23.757321 -4.07355,-6.474132 -12.55714,-4.936556 -19.114805,-4.936556 l -43.650807,0 -12.875324,0 c -1.885254,0 -4.357985,-0.411115 -6.147437,0.235645 m 21.267568,7.663933 c 2.237779,-0.959996 6.315881,-0.18616 8.746353,-0.18616 l 16.329725,0 c 2.300427,0 5.296208,-0.501474 7.51835,0.09808 1.538468,0.415074 1.849328,3.358797 0.546703,4.212797 -1.763819,1.156449 -6.297473,0.317195 -8.37908,0.317195 l -16.643753,0 c -2.393755,0 -5.520768,0.525622 -7.832378,-0.09808 -1.648916,-0.444963 -1.851802,-3.672132 -0.28592,-4.343832 m 52.711195,12.155228 0,100.891692 -72.541837,0 0,-100.891692 72.541837,0 M 74.670606,156.58783 c 8.58157,-0.42062 9.291175,13.10345 0.628154,13.64678 -9.047317,0.56808 -9.607281,-13.20637 -0.628154,-13.64678 M 280.58247,24.241237 c -9.10412,3.290905 -8.29753,11.643264 -8.29753,19.510676 l 0,53.993823 0,55.845324 c 0,7.08022 -2.00015,17.52042 1.92494,23.75742 4.01417,6.37853 12.96291,4.62777 19.42854,4.62777 l 43.6511,0 12.87582,0 c 2.1011,0 4.59214,0.35728 6.59428,-0.36618 8.57068,-3.09871 7.53646,-11.77826 7.53646,-19.07126 l 0,-53.37675 0,-56.462591 c 0,-7.080315 2.00016,-17.520417 -1.92494,-23.757321 -4.07355,-6.474132 -12.55714,-4.936556 -19.1148,-4.936556 l -43.65111,0 -12.87483,0 c -1.88535,0 -4.35857,-0.411115 -6.14793,0.235645 m 21.26737,7.663933 c 2.23867,-0.959996 6.31618,-0.18616 8.74685,-0.18616 l 16.32983,0 c 2.30003,0 5.29581,-0.501474 7.51864,0.09808 1.53798,0.415074 1.84874,3.358797 0.54631,4.212797 -1.76362,1.156449 -6.29737,0.317195 -8.37869,0.317195 l -16.64454,0 c -2.39306,0 -5.52047,0.525622 -7.83238,-0.09808 -1.64881,-0.444963 -1.8517,-3.672132 -0.28602,-4.343832 m 52.71169,12.155228 0,100.891692 -72.54203,0 0,-100.891692 72.54203,0 M 318.13315,156.58783 c 8.58157,-0.42062 9.29118,13.10345 0.62845,13.64678 -9.04771,0.56808 -9.60688,-13.20637 -0.62845,-13.64678 m -165.19943,-32.88629 0,-33.760174 47.18429,0 0,-22.723198 40.98489,40.252522 -41.32931,40.57714 0,-24.34629 -46.83987,0 z"
     id="path3032"
     inkscape:connector-curvature="0" />
</svg>
