<?xml version="1.0" encoding="UTF-8" standalone="no"?>
<svg
   xmlns:dc="http://purl.org/dc/elements/1.1/"
   xmlns:cc="http://creativecommons.org/ns#"
   xmlns:rdf="http://www.w3.org/1999/02/22-rdf-syntax-ns#"
   xmlns:svg="http://www.w3.org/2000/svg"
   xmlns="http://www.w3.org/2000/svg"
   xmlns:sodipodi="http://sodipodi.sourceforge.net/DTD/sodipodi-0.dtd"
   xmlns:inkscape="http://www.inkscape.org/namespaces/inkscape"
   width="400"
   height="400"
   id="svg3015"
   version="1.1"
   inkscape:version="0.48.5 r10040"
   sodipodi:docname="cant_find.svg">
  <metadata
     id="metadata3023">
    <rdf:RDF>
      <cc:Work
         rdf:about="">
        <dc:format>image/svg+xml</dc:format>
        <dc:type
           rdf:resource="http://purl.org/dc/dcmitype/StillImage" />
      </cc:Work>
    </rdf:RDF>
  </metadata>
  <defs
     id="defs3021" />
  <sodipodi:namedview
     pagecolor="#ffffff"
     bordercolor="#666666"
     borderopacity="1"
     objecttolerance="10"
     gridtolerance="10"
     guidetolerance="10"
     inkscape:pageopacity="0"
     inkscape:pageshadow="2"
     inkscape:window-width="1600"
     inkscape:window-height="837"
     id="namedview3019"
     showgrid="false"
     inkscape:zoom="1.625"
     inkscape:cx="200"
     inkscape:cy="200"
     inkscape:window-x="-8"
     inkscape:window-y="-8"
     inkscape:window-maximized="1"
     inkscape:current-layer="svg3015" />
  <path
     style="fill:#000000;stroke:none"
     d="m 122.82275,211.39711 c 2.77053,1.28068 5.14542,4.82377 7.28153,6.96877 4.81095,4.82969 9.57256,9.75904 14.5177,14.45553 3.3349,3.16717 5.96435,6.23272 10.88777,6.48432 9.00128,0.4588 14.14967,-10.35399 9.12166,-17.32079 -3.03003,-4.19922 -7.51439,-7.81828 -11.16799,-11.49555 -7.2914,-7.33778 -14.53742,-14.68345 -21.88112,-21.96302 -3.49277,-3.4612 -6.97074,-6.93029 -10.4497,-10.39444 -2.145,-2.13612 -4.13706,-4.51594 -6.8553,-5.98113 -6.23766,-3.36056 -14.24932,0.29403 -20.937184,-0.16082 -6.098831,-0.41341 -11.965502,-1.6645 -17.945835,-2.85046 -4.183826,-0.82879 -8.843419,-1.60332 -12.818468,-3.15829 -2.243661,-0.87714 -4.243223,-2.28214 -6.409234,-3.3132 -2.747844,-1.3093 -5.465594,-2.7212 -8.118422,-4.21106 -0.841916,-0.47359 -2.019197,-0.76367 -2.733932,-1.40796 -0.930715,-0.83965 0.290275,-1.94766 0.872897,-2.61563 1.898034,-2.17558 3.746736,-4.38866 5.646251,-6.56523 3.591633,-4.11436 7.079865,-8.32542 10.59819,-12.49405 2.318056,-2.74587 4.802264,-5.08326 5.671017,-8.68161 1.685015,-6.97863 -5.346603,-14.46046 -12.540625,-13.07322 -5.186666,0.99948 -8.003674,5.70288 -11.028078,9.47291 -6.693688,8.34417 -13.21106,16.82647 -19.978451,25.11045 -3.062686,3.74832 -7.182379,7.80151 -6.93009,13.00712 0.298464,6.15971 4.987262,8.77435 9.913351,11.29921 6.564238,3.3645 13.206224,6.72309 19.654925,10.29973 2.085302,1.15636 4.250425,2.29102 6.409234,3.31221 1.021783,0.48346 2.352687,1.01034 2.684697,2.19531 1.151134,4.10845 0.737429,9.09107 1.196323,13.33962 1.203526,11.14234 2.130097,22.30342 3.205456,33.45858 1.373922,14.25228 2.514992,28.53909 4.058323,42.77558 1.709287,15.76878 4.318702,31.4448 5.91038,47.22344 1.156067,11.46004 2.893967,22.86581 4.275782,34.30513 0.702304,5.81438 0.446365,12.0096 5.16052,16.28578 8.40919,7.62786 22.215793,0.37789 22.066803,-10.35597 -0.0927,-6.69546 -1.65561,-13.46492 -2.376852,-20.11796 -1.952498,-18.01638 -4.588257,-35.9706 -6.40805,-53.99882 -0.41341,-4.09562 -0.9392,-8.18532 -1.35409,-12.28193 -0.192201,-1.89833 -0.895195,-4.02162 -0.636789,-5.92981 0.358847,-2.64918 2.950602,-4.62546 5.586657,-4.42714 3.383544,0.25456 4.165964,3.09317 4.450124,5.9091 0.68474,6.77834 1.92299,13.53202 2.39166,20.33009 0.34631,5.03295 1.37441,10.01458 1.88155,15.0347 1.45532,14.41903 3.36549,28.81339 5.10201,43.19985 0.93832,7.76994 0.17168,17.49543 6.89773,22.83325 7.0556,5.59731 18.84518,1.76217 21.31972,-6.73986 0.81103,-2.78435 0.35618,-5.65158 0.0809,-8.47047 -0.44794,-4.59092 -1.01231,-9.18283 -1.56484,-13.76487 -3.8529,-31.91247 -7.34666,-63.93644 -10.4714,-95.92785 -0.8288,-8.47639 -1.86183,-16.94389 -2.77646,-25.41139 -0.50714,-4.68761 -1.45729,-9.47093 -1.46025,-14.18815 M 87.785427,118.52395 c -4.21757,0.56831 -8.211661,1.59345 -11.750213,4.067 -12.871057,8.99734 -13.082596,28.57955 -0.21371,37.70811 5.199887,3.68813 11.719232,4.79319 17.945835,3.8312 2.689335,-0.4144 5.386859,-1.66647 7.691291,-3.03694 16.7357,-9.95439 13.30805,-35.36874 -4.913946,-41.38933 -2.725446,-0.89983 -5.869532,-1.56977 -8.759257,-1.18004 M 209.98118,22.06487 c -2.1144,0.598113 -4.49521,0.569993 -6.67967,0.875462 -3.79568,0.530625 -7.54893,1.381322 -11.25481,2.332954 -12.5799,3.229431 -24.7523,9.537336 -34.73531,17.718904 -8.7339,7.157812 -16.18909,15.705233 -21.84462,25.433092 -19.36514,33.307318 -15.4708,75.810978 9.14929,105.429478 6.24752,7.51636 13.83097,14.10231 22.20375,19.24477 18.10321,11.11866 39.93303,16.14469 61.12546,13.61194 5.2658,-0.62949 10.42997,-1.6931 15.52409,-3.14251 2.43606,-0.69362 5.05465,-2.10454 7.53215,-2.48144 1.57964,-0.24075 1.60036,2.95701 3.15829,2.99155 1.10012,0.0247 2.49624,-0.83768 3.47501,-1.27279 2.80408,-1.24615 5.9456,-3.54803 8.9263,-4.21501 1.79868,-0.40255 1.98219,3.20862 3.6901,2.72022 1.55004,-0.44301 3.14053,-2.00489 4.4597,-2.8988 3.83316,-2.60083 7.46604,-5.50457 11.06142,-8.41126 1.29351,-1.04586 4.19922,-2.76857 4.81786,-4.31565 0.64231,-1.60726 -2.91657,-3.13165 -2.29103,-4.75076 0.37099,-0.96002 1.59839,-1.89537 2.27129,-2.67878 1.8194,-2.1223 4.74978,-5.10595 5.51049,-7.84492 0.41144,-1.48393 -2.0118,-2.16867 -1.33988,-3.63583 0.64133,-1.40204 1.82236,-2.69259 2.63438,-4.01866 1.62995,-2.66003 3.08034,-5.43057 4.45278,-8.22775 4.31861,-8.80197 7.04869,-18.44853 8.33924,-28.12667 5.58547,-41.8869 -19.77954,-83.510267 -59.90595,-98.431501 -9.83205,-3.655866 -20.74252,-6.041901 -31.24253,-6.041901 -2.75673,0 -6.38763,-0.613998 -9.0378,0.135862 m 1.6645,12.930059 c 9.78567,-1.138505 20.80172,0.659779 30.07729,3.708455 15.77173,5.183903 29.77538,14.629578 39.80081,27.808472 21.71142,28.542941 21.91763,70.404394 -1.51748,98.159094 -5.9308,7.02303 -12.65784,13.16892 -20.6251,17.90982 -9.95736,5.92587 -21.01484,9.93959 -32.60018,11.31105 -19.64141,2.32358 -40.0386,-2.62155 -56.27406,-13.86058 -27.2002,-18.8284 -40.65723,-54.04618 -31.71219,-85.77465 2.25452,-7.998839 5.44044,-15.818797 10.10832,-22.769805 5.25099,-7.819465 11.58534,-14.938304 19.27535,-20.524467 13.10875,-9.522438 27.47449,-14.106847 43.46724,-15.967389 m 91.00838,108.245801 c -0.2664,2.63635 -1.64772,5.40195 -2.63931,7.84492 -2.67089,6.58594 -6.16267,12.87983 -10.48325,18.56003 -15.604,20.51657 -39.73964,33.68945 -65.8555,34.8172 -8.93123,0.38479 -17.08201,-1.40599 -25.80802,-2.67187 l 0,-0.19142 c 5.71966,0 11.39294,0.0513 17.0761,-0.6285 25.87807,-3.09317 52.2919,-15.1896 70.4326,-33.81278 4.0305,-4.13903 7.94458,-8.57603 11.12754,-13.39389 2.2476,-3.40199 3.92986,-7.1286 6.14984,-10.52369 m -16.10621,80.93755 c 1.39316,-0.32658 2.56136,-1.5303 3.68714,-2.36798 2.48342,-1.84702 4.90961,-3.77396 7.37428,-5.64565 0.69461,-0.52787 3.25104,-1.89735 3.01128,-2.90078 -0.28613,-1.19879 -1.99601,-2.54854 -2.81789,-3.43653 -2.20124,-2.37883 -4.30677,-4.84745 -6.45867,-7.27069 -1.7602,-1.98318 -3.1948,-4.34721 -0.51898,-6.39946 3.10699,-2.38081 5.27172,1.19681 6.97765,3.33786 1.97627,2.47947 3.90421,4.99743 5.89923,7.4621 0.54365,0.67191 1.45828,2.41337 2.44592,2.42422 1.26687,0.0148 3.34675,-2.2111 4.26829,-2.99747 -2.52782,-4.3334 -6.73098,-8.20998 -9.9761,-12.05499 -1.33791,-1.58556 -2.85243,-3.84008 -4.96586,-4.46858 -2.22984,-0.66204 -4.01767,1.23826 -5.62691,2.43508 -3.83514,2.85341 -7.61404,5.80549 -11.25481,8.89669 -1.50663,1.27871 -3.5944,2.67681 -3.73352,4.80898 -0.17069,2.61168 1.69212,4.74681 3.17606,6.69645 2.85835,3.75818 5.99493,7.49367 8.51289,11.48075 m 81.88968,64.48207 c -3.71378,-2.65411 -6.72605,-7.31903 -9.75805,-10.71511 -6.83458,-7.65449 -13.57938,-15.40667 -20.52842,-22.96052 -5.66933,-6.16366 -11.16601,-12.49504 -16.72879,-18.75144 -4.2081,-4.73202 -8.48921,-9.40384 -12.66968,-14.15954 -1.18497,-1.34777 -2.38376,-2.68568 -3.58551,-4.01866 -0.41144,-0.45682 -0.90773,-1.23825 -1.55004,-1.38724 -0.9985,-0.23186 -2.37193,1.30239 -3.09712,1.84209 -2.80705,2.08777 -5.53614,4.27618 -8.34417,6.36198 -0.73013,0.54266 -3.00734,1.69705 -2.84849,2.75771 0.2812,1.86379 3.00734,4.42121 4.13509,5.92488 3.44442,4.59191 6.6264,9.37523 10.06983,13.96713 11.43833,15.25769 22.24027,31.04521 33.4122,46.49628 3.40792,4.71327 6.94114,9.33872 10.46253,13.96812 1.35271,1.77796 2.8988,4.76457 5.11779,5.55489 2.84553,1.0133 5.73446,-2.0335 7.76205,-3.57467 4.95302,-3.76311 9.97018,-7.44631 14.94195,-11.18673 2.05225,-1.54313 5.22238,-3.14744 6.24456,-5.60816 0.95114,-2.28609 -1.42769,-4.49226 -2.77646,-6.04131 -3.89138,-4.46562 -7.5578,-9.12067 -11.44918,-13.5853 -14.29175,-16.39728 -28.33485,-33.12804 -42.12143,-49.9407 -2.90374,-3.54013 -5.85779,-7.06842 -8.86315,-10.5237 -0.8061,-0.92647 -2.09468,-3.24512 -3.32702,-3.56973 -0.95409,-0.25258 -3.41482,1.99996 -4.00682,2.69753 -0.96791,1.14057 1.91412,3.78482 2.62846,4.69945 3.60624,4.61756 7.27365,9.19664 10.9302,13.77671 15.38595,19.26845 30.74724,38.56749 45.94967,57.97604 m 0.12925,0.12827 -0.0651,0.12728 0.0651,-0.12728 m 0.45288,0.44597 -0.19437,0.19141 0.19437,-0.19141 m -135.97731,-149.58727 -33.76049,0 0,-2.84454 c 0,-5.69104 0.9837,-9.95834 2.07593,-13.27845 1.42079,-3.31912 3.49672,-6.16464 6.00974,-9.00918 2.51203,-2.37192 8.08468,-7.5874 17.04353,-14.22672 4.58895,-3.793605 7.10197,-7.113119 7.10197,-9.958345 0,-2.845227 -0.9837,-5.216266 -3.05963,-7.113116 -1.4198,-1.422663 -4.47943,-2.371039 -8.52177,-2.371039 -4.04234,0 -7.53905,1.422564 -10.59769,3.793603 -2.51302,2.845325 -4.04234,7.113214 -5.02604,13.752044 l -33.76049,-3.793603 c 1.09223,-11.855193 5.57166,-21.339348 13.65733,-28.452464 8.08467,-7.113116 20.10316,-10.906818 36.2735,-10.906818 12.56411,0 23.16181,2.371039 30.70086,7.587304 11.03479,6.638928 16.06083,15.648895 16.06083,26.555713 0,4.742077 -1.52932,9.484154 -4.04234,13.752341 -2.95011,4.2673 -8.52177,9.48376 -17.04452,15.6484 -5.57166,4.26829 -9.614,8.06199 -11.14431,10.43293 -1.52932,2.84453 -1.96641,6.16464 -1.96641,10.43194 l 0,0 m -34.7432,8.53656 35.7269,0 0,29.40045 -35.7269,0 0,-29.40045 z"
     id="path3017"
     inkscape:connector-curvature="0" />
</svg>
