<?xml version="1.0" encoding="UTF-8" standalone="no"?>
<svg
   xmlns:dc="http://purl.org/dc/elements/1.1/"
   xmlns:cc="http://creativecommons.org/ns#"
   xmlns:rdf="http://www.w3.org/1999/02/22-rdf-syntax-ns#"
   xmlns:svg="http://www.w3.org/2000/svg"
   xmlns="http://www.w3.org/2000/svg"
   xmlns:sodipodi="http://sodipodi.sourceforge.net/DTD/sodipodi-0.dtd"
   xmlns:inkscape="http://www.inkscape.org/namespaces/inkscape"
   width="400"
   height="400"
   id="svg2995"
   version="1.1"
   inkscape:version="0.48.5 r10040"
   sodipodi:docname="traffic.svg">
  <metadata
     id="metadata3003">
    <rdf:RDF>
      <cc:Work
         rdf:about="">
        <dc:format>image/svg+xml</dc:format>
        <dc:type
           rdf:resource="http://purl.org/dc/dcmitype/StillImage" />
      </cc:Work>
    </rdf:RDF>
  </metadata>
  <defs
     id="defs3001" />
  <sodipodi:namedview
     pagecolor="#ffffff"
     bordercolor="#666666"
     borderopacity="1"
     objecttolerance="10"
     gridtolerance="10"
     guidetolerance="10"
     inkscape:pageopacity="0"
     inkscape:pageshadow="2"
     inkscape:window-width="1600"
     inkscape:window-height="837"
     id="namedview2999"
     showgrid="false"
     inkscape:zoom="1.625"
     inkscape:cx="200"
     inkscape:cy="200"
     inkscape:window-x="-8"
     inkscape:window-y="-8"
     inkscape:window-maximized="1"
     inkscape:current-layer="svg2995" />
  <path
     style="fill:#000000;stroke:none"
     d="m 334.33303,92.954529 c -6.77515,0.07449 -14.1484,3.038564 -20.86525,4.133143 -15.59792,2.541787 -31.53058,3.611438 -47.38885,3.611438 -5.41108,0 -10.77993,0.73883 -16.2674,0.70365 -1.17208,-0.007 -4.50839,-1.27582 -5.07232,0.11258 -0.42721,1.05246 0.46743,2.7935 0.8675,3.76051 1.21028,2.92719 2.44971,5.84935 3.59968,8.80066 1.23239,3.16241 2.48891,6.32381 3.66602,9.50532 0.46139,1.24948 0.99315,3.74141 2.09688,4.56669 2.16624,1.6204 6.74298,1.18012 9.34146,2.16724 8.89716,3.38054 15.08024,10.55778 18.26778,19.31722 2.24665,6.17303 3.76754,11.72181 3.65697,18.30597 -0.0322,1.927 -2.33009,5.71063 -0.59308,7.18025 1.0977,0.92882 3.15236,0.56393 4.48427,0.56393 2.90507,0.001 5.94987,0.42722 8.84187,0.74989 9.96972,1.11478 20.83911,3.44286 30.05995,7.54112 7.56726,3.36345 14.02476,8.58756 17.85765,16.00001 2.13608,4.13043 3.02268,9.9838 5.88955,13.61765 2.37734,3.01464 9.59478,-0.35283 11.5258,-2.39743 5.51562,-5.8393 2.92116,-18.91916 2.92116,-26.35775 0,-18.95635 1.37413,-38.59825 -0.75291,-57.38271 -0.54684,-4.82804 -4.30936,-8.86599 -4.90545,-13.72922 4.42596,0 10.84225,1.02632 14.33236,-2.36326 2.07175,-2.01345 1.94107,-4.85519 1.93604,-7.49388 -0.0131,-6.601754 -4.18471,-15.797663 -9.90237,-19.316318 -3.80876,-2.343759 -7.73111,-2.157895 -12.02439,-2.157895 -2.17729,0 -4.59182,0.456569 -5.79808,-1.766967 -1.62945,-3.002578 -2.41251,-6.664878 -3.64792,-9.850304 -2.64171,-6.81365 -5.33166,-13.607698 -7.98543,-20.418231 -2.33411,-5.98867 -4.36263,-12.332985 -9.79984,-16.294337 -3.44085,-2.507308 -7.66678,-3.617266 -11.67055,-4.83428 -9.10524,-2.768363 -17.80538,-3.948586 -27.23027,-4.58931 -18.93021,-1.286776 -38.164,-2.075568 -57.29123,-1.382573 -5.36986,0.19451 -10.88548,1.399159 -16.26841,1.401572 -9.32839,0.0042 -18.41051,2.464486 -27.23127,5.400116 -4.56569,1.519885 -9.64203,3.402754 -13.06579,6.927842 -3.86706,3.981356 -5.94183,10.357234 -7.79946,15.483128 -1.50079,4.143195 -3.30012,8.187477 -4.82906,12.321424 -0.34076,0.921179 -1.89081,3.380538 -0.94993,4.214666 1.33694,1.186656 5.13364,0.175108 6.84049,0.45305 2.84074,0.462902 8.22467,1.771692 10.91664,0.251003 2.43061,-1.372722 3.41572,-6.056924 4.48426,-8.439183 3.12924,-6.9775 6.09663,-12.676668 13.95139,-14.887739 9.35955,-2.634568 18.68996,-3.136573 28.29278,-3.789259 17.97827,-1.222241 35.78164,-0.638714 53.75388,0.01246 8.6358,0.312923 17.42842,1.0409 25.81694,3.278609 3.10209,0.827493 6.92895,1.639908 9.54854,3.583693 3.5464,2.631452 4.48929,7.006349 6.36602,10.746152 4.86927,9.703341 10.69248,21.874385 12.02338,32.739655 M 51.413226,142.94428 c -7.990053,0 -14.921413,-1.19319 -21.125702,4.73657 -1.949212,1.86267 -2.80465,5.10549 -3.629731,7.58435 -1.870605,5.62116 -5.40092,13.03463 1.061206,17.33192 3.22282,2.14211 9.343876,0.97405 13.084785,0.97405 -0.836038,6.64347 -4.843026,12.53604 -5.61282,19.36246 -0.606748,5.3789 -0.04564,11.13074 -0.04564,16.54584 l 0,32.73985 0,17.2495 c 0,2.74122 -0.482403,5.90966 0.714105,8.44883 4.667214,9.90338 20.897819,6.33688 30.05352,6.33688 4.228638,0 8.65641,0.64333 12.004982,-2.51003 5.096642,-4.79889 3.555547,-13.69806 3.555547,-20.02087 l 27.584809,0 c 3.05988,0 8.42773,1.0404 11.22323,-0.2121 1.74103,-0.78004 3.4127,-4.91349 4.58881,-6.4766 2.5261,-3.35842 5.75485,-5.69555 9.29723,-7.84671 2.51907,-1.52993 5.58096,-2.50097 8.48703,-2.97443 1.43847,-0.23522 3.51725,0.39606 4.54559,-0.90771 1.73098,-2.19438 2.21649,-5.77998 3.27398,-8.33725 3.89722,-9.42188 6.55199,-21.21808 13.13917,-29.21859 6.554,-7.9603 15.3235,-11.95603 25.01578,-14.68418 16.42924,-4.62299 32.58505,-5.62117 49.51187,-6.77113 6.79325,-0.4624 14.12931,-0.72074 20.86525,-0.72376 4.92958,-0.002 9.78879,0.71974 12.67878,-4.22391 1.80235,-3.083 0.49155,-7.12195 -0.53879,-10.20997 -2.20947,-6.61633 -4.36163,-14.09111 -12.13999,-16.02615 -3.86304,-0.96199 -12.44054,2.04662 -14.45399,-2.28083 -4.45511,-9.57266 -7.62656,-20.07113 -11.46548,-29.92224 -2.57938,-6.62034 -4.76572,-13.028389 -10.86034,-17.242753 -4.35057,-3.008207 -10.47032,-4.526182 -15.56073,-5.793156 -13.05976,-3.250061 -25.93355,-3.184119 -39.25466,-4.089717 -12.58328,-0.855338 -25.25905,-0.855338 -37.84132,0 -9.76064,0.663542 -19.34738,0.448527 -28.99945,2.039983 -9.740237,1.606032 -22.600356,3.996132 -30.040757,11.049828 -2.672566,2.533745 -3.978441,6.162975 -5.363225,9.460075 -2.647234,6.3017 -5.170224,12.58228 -7.509259,19.00963 -1.980475,5.44223 -5.873371,11.80323 -6.243793,17.60232 m 177.532044,9.85714 c -3.65496,0.4433 -7.33807,1.88377 -10.96287,2.65578 -7.85978,1.67469 -16.08344,2.74524 -24.04776,3.63486 -25.99788,2.90607 -52.44107,2.54118 -78.51032,0.76898 -15.780068,-1.07256 -32.131702,-2.31903 -47.38946,-7.05962 0.06554,-5.91469 3.021576,-12.88686 5.265719,-18.30597 2.423775,-5.85438 4.792062,-11.57506 7.64245,-17.2505 1.333116,-2.65377 2.429504,-5.7046 4.775978,-7.6517 5.476814,-4.54458 14.565263,-4.73255 21.217273,-5.81718 17.0183,-2.77339 34.67188,-2.02048 51.98671,-2.02048 11.37401,0 22.77416,0.90369 33.95014,2.72514 6.0906,0.99215 13.20853,1.73198 18.37131,5.49249 2.95433,2.15217 3.91531,6.93398 5.50054,10.08834 5.31357,10.57989 7.62254,22.00416 12.20029,32.73986 m 101.85142,-22.01823 c 2.7382,-0.59811 7.97236,-0.81825 10.20997,1.06251 3.65395,3.06993 2.52208,9.7335 2.52208,13.91419 0,1.80737 0.18898,3.65697 -0.75994,5.2814 -1.86669,3.19156 -5.38192,4.37369 -8.7886,5.12056 -8.59258,1.88177 -18.09186,0.86449 -26.87744,0.86348 -3.30113,0 -7.69693,-0.60112 -8.92329,-4.22391 -1.66866,-4.92656 1.91191,-8.00855 5.73977,-10.24817 8.02263,-4.69435 17.71592,-9.76767 26.87745,-11.77006 M 156.80098,247.85155 c -6.01621,0 -13.25275,-1.20425 -18.3894,2.63064 -5.05121,3.77157 -8.48502,13.01955 -8.48804,19.19559 -0.001,3.07596 0.14676,5.55683 2.83069,7.57832 3.35842,2.52811 10.12151,1.22334 14.14438,1.22334 -6.0524,10.70856 -5.65836,21.587 -5.65836,33.44351 l 0,39.42755 0,15.49037 c 0,3.53333 -0.30156,6.53289 2.12905,9.41384 2.51505,2.98247 6.02626,2.55526 9.5415,2.55526 l 21.57292,0 c 3.29912,0 6.95207,0.47546 9.45707,-2.1582 4.57473,-4.81096 2.92015,-13.24974 2.92015,-19.31621 l 134.03337,0 c 0,6.02928 -1.45957,14.39468 3.08199,19.20161 2.62663,2.77942 6.16901,2.2728 9.65007,2.2728 l 21.21908,0 c 3.72935,0 7.36019,0.3277 10.0029,-2.86185 4.7808,-5.76893 2.37432,-18.25973 2.37432,-25.30127 l 0,-35.90829 c 0,-12.78935 0.1357,-24.75744 -6.36503,-36.25912 4.1817,0 11.11065,1.35604 14.49219,-1.50179 2.51605,-2.12603 2.48891,-4.63102 2.48288,-7.65169 -0.0131,-6.1871 -3.77056,-15.9779 -9.19571,-19.31622 -3.90626,-2.40447 -7.97738,-2.15819 -12.37721,-2.15819 -1.73802,0 -4.54056,0.55286 -5.6674,-1.10775 -2.30195,-3.39361 -3.3142,-8.43376 -4.71044,-12.26966 -2.54319,-6.98926 -5.41409,-13.8408 -8.1151,-20.77076 -1.67972,-4.31137 -3.3534,-9.8109 -6.9762,-12.9341 -9.445,-8.14023 -25.62293,-9.86518 -37.48045,-10.67136 -25.81995,-1.75511 -52.00179,-2.9091 -77.80365,-0.0261 -12.22743,1.36709 -27.83239,2.38236 -37.84031,10.6975 -4.61495,3.83489 -6.29969,9.39172 -8.52724,14.69423 -4.30735,10.25621 -9.97375,21.51161 -12.33802,32.38804 M 64.144678,190.62967 c 3.890383,-0.85242 8.01468,0.37797 11.670447,1.5993 8.298855,2.7744 18.024814,6.68368 25.108965,11.86958 4.73155,3.46297 4.99291,10.8121 -1.414436,12.52197 -7.57309,2.02048 -15.71875,0.53477 -23.340895,0.25834 -4.783517,-0.17391 -10.890299,-0.0231 -14.807421,-3.34134 -2.502785,-2.121 -2.521382,-5.31155 -2.521382,-8.28297 0,-5.10348 -1.266068,-13.18541 5.304722,-14.62488 m 177.532652,16.19402 c 7.77835,-1.65056 18.02753,-0.37193 25.81593,0.49758 4.08118,0.45637 8.28097,-0.21411 12.37822,0.0653 5.80009,0.39404 11.55495,1.39926 17.32891,2.04762 6.12276,0.68657 15.24308,1.64253 20.06409,5.92977 2.51002,2.23057 3.55143,6.6314 4.88535,9.60483 3.34636,7.4607 6.77816,14.7455 9.35453,22.53089 0.66646,2.01345 4.0289,9.89735 1.39323,10.82014 -13.55634,4.74863 -28.72503,4.90545 -42.7709,6.47459 -13.12208,1.4666 -26.31754,1.36307 -39.60849,1.36307 -13.21255,0 -26.62815,0.0935 -39.6085,-2.02048 -9.41987,-1.53497 -18.91814,-1.72093 -28.29178,-4.0661 -2.22856,-0.55789 -6.97116,-0.51165 -8.62675,-2.22253 -1.21531,-1.25551 0.44531,-4.02488 0.77301,-5.42012 1.26556,-5.38192 3.22875,-10.74676 5.3387,-15.84219 2.08783,-5.04115 4.30433,-9.89936 6.75806,-14.78571 0.98209,-1.95313 1.81843,-4.58881 3.35038,-6.17604 3.03776,-3.14532 8.18446,-3.91129 12.21035,-4.98486 7.74116,-2.06572 16.42722,-2.97645 24.4026,-3.26595 4.95068,-0.17893 9.99888,0.47949 14.85306,-0.54985 m -31.12146,108.2677 c -0.98511,2.30998 -1.00019,4.8381 -3.53836,6.12176 -3.03876,1.53898 -7.62456,1.27059 -10.96086,1.27059 -7.4014,0 -15.45921,0.74085 -22.63443,-1.16002 -4.45612,-1.18012 -7.96734,-2.81058 -9.03287,-7.64064 -0.98611,-4.46818 -1.17007,-14.64297 3.37652,-17.25954 4.38575,-2.52309 10.59899,-0.3659 14.85205,1.37916 10.05517,4.1254 22.43842,7.55921 27.93795,17.28869 m 123.0705,-19.55445 c 9.14745,-1.94006 9.90237,6.75102 9.90237,13.21757 0,2.697 0.34781,5.64931 -1.05246,8.09701 -1.73601,3.03475 -6.00515,4.08821 -9.20375,4.76774 -5.71364,1.2153 -11.84043,0.86448 -17.68274,0.86448 -3.04982,0 -6.55903,0.47446 -9.54854,-0.15983 -5.06226,-1.07457 -9.16153,-2.5251 -8.04071,-8.64083 0.70164,-3.82786 5.06226,-5.37187 8.04071,-7.07973 8.45286,-4.84513 18.04563,-9.04291 27.58512,-11.06641 z"
     id="path2997"
     inkscape:connector-curvature="0" />
</svg>
